<svg width="298.62" height="43.74" viewBox="0 0 298.62 43.74"
	xmlns="http://www.w3.org/2000/svg">
	<g id="svgGroup" stroke-linecap="round" fill-rule="evenodd" font-size="9pt" stroke="#006c96" stroke-width="0.25mm" fill="#006c96" style="stroke:#006c96;stroke-width:0.25mm;fill:#006c96">
		<path d="M 19.62 18.18 L 18.48 18.72 L 18.48 43.08 L 13.98 43.08 L 13.98 13.08 L 18.42 13.08 L 18.42 15.18 Q 23.28 12.48 27.72 12.48 A 19.811 19.811 0 0 1 29.741 12.577 Q 31.421 12.75 32.67 13.23 Q 34.62 13.98 35.79 15.72 Q 36.96 17.46 37.41 20.28 A 31.614 31.614 0 0 1 37.684 22.581 Q 37.789 23.811 37.831 25.223 A 67.29 67.29 0 0 1 37.86 27.24 L 37.86 43.08 L 33.42 43.08 L 33.42 27.36 Q 33.42 24.24 33.15 22.14 A 13.369 13.369 0 0 0 32.911 20.796 Q 32.754 20.127 32.536 19.573 A 6.096 6.096 0 0 0 32.16 18.78 Q 31.44 17.52 30.18 17.01 A 6.19 6.19 0 0 0 29.062 16.685 Q 28.495 16.572 27.831 16.528 A 13.504 13.504 0 0 0 26.94 16.5 A 14.501 14.501 0 0 0 24.458 16.723 A 17.948 17.948 0 0 0 22.89 17.07 Q 21.134 17.54 20.051 17.989 A 9.645 9.645 0 0 0 19.62 18.18 Z M 153.18 18.18 L 152.04 18.72 L 152.04 43.08 L 147.54 43.08 L 147.54 13.08 L 151.98 13.08 L 151.98 15.18 Q 156.84 12.48 161.28 12.48 A 19.811 19.811 0 0 1 163.301 12.577 Q 164.981 12.75 166.23 13.23 Q 168.18 13.98 169.35 15.72 Q 170.52 17.46 170.97 20.28 A 31.614 31.614 0 0 1 171.244 22.581 Q 171.349 23.811 171.391 25.223 A 67.29 67.29 0 0 1 171.42 27.24 L 171.42 43.08 L 166.98 43.08 L 166.98 27.36 Q 166.98 24.24 166.71 22.14 A 13.369 13.369 0 0 0 166.471 20.796 Q 166.314 20.127 166.096 19.573 A 6.096 6.096 0 0 0 165.72 18.78 Q 165 17.52 163.74 17.01 A 6.19 6.19 0 0 0 162.622 16.685 Q 162.055 16.572 161.391 16.528 A 13.504 13.504 0 0 0 160.5 16.5 A 14.501 14.501 0 0 0 158.018 16.723 A 17.948 17.948 0 0 0 156.45 17.07 Q 154.694 17.54 153.611 17.989 A 9.645 9.645 0 0 0 153.18 18.18 Z M 230.64 43.08 L 214.8 43.08 L 214.8 1.56 L 229.86 1.56 A 23.92 23.92 0 0 1 233.257 1.785 Q 236.957 2.317 239.13 4.11 A 7.947 7.947 0 0 1 241.629 7.899 Q 242.054 9.216 242.173 10.82 A 17.494 17.494 0 0 1 242.22 12.12 Q 242.22 14.676 241.67 16.482 A 7.606 7.606 0 0 1 240.9 18.24 A 8.282 8.282 0 0 1 238.503 20.736 A 11.075 11.075 0 0 1 236.88 21.66 A 10.419 10.419 0 0 1 240.496 23.714 Q 243.48 26.397 243.48 31.44 A 18.576 18.576 0 0 1 243.219 34.67 Q 242.552 38.439 240.18 40.38 Q 237.595 42.495 233.206 42.953 A 24.738 24.738 0 0 1 230.64 43.08 Z M 137.64 39.36 L 139.38 39.18 L 139.5 42.72 Q 136.08 43.2 133.17 43.44 Q 130.26 43.68 127.8 43.68 A 17.54 17.54 0 0 1 124.454 43.383 Q 122.583 43.019 121.164 42.208 A 7.957 7.957 0 0 1 118.62 39.93 A 11.805 11.805 0 0 1 117.042 36.737 Q 116.032 33.701 115.931 29.26 A 44.154 44.154 0 0 1 115.92 28.26 A 29.144 29.144 0 0 1 116.437 22.5 Q 118.467 12.48 128.46 12.48 A 17.531 17.531 0 0 1 131.897 12.795 Q 133.887 13.193 135.409 14.096 A 8.784 8.784 0 0 1 137.55 15.87 Q 140.52 19.26 140.52 26.52 L 140.28 29.94 L 120.48 29.94 A 22.459 22.459 0 0 0 120.622 32.564 Q 120.986 35.647 122.28 37.35 A 5.371 5.371 0 0 0 124.657 39.09 Q 125.584 39.454 126.75 39.608 A 14.035 14.035 0 0 0 128.58 39.72 Q 133.08 39.72 137.64 39.36 Z M 185.76 13.08 L 195.3 13.08 L 195.3 16.98 L 185.76 16.98 L 185.76 31.32 Q 185.76 35.91 186.363 37.67 A 3.503 3.503 0 0 0 186.54 38.1 Q 187.26 39.72 190.08 39.72 L 195.42 39.36 L 195.72 43.08 A 164.972 164.972 0 0 1 194.262 43.288 Q 193.684 43.368 193.156 43.436 A 92.896 92.896 0 0 1 192.15 43.56 A 32.896 32.896 0 0 1 191.116 43.666 Q 190.631 43.708 190.212 43.726 A 14.162 14.162 0 0 1 189.6 43.74 A 17.873 17.873 0 0 1 187.95 43.668 Q 187.146 43.594 186.457 43.441 A 8.788 8.788 0 0 1 185.67 43.23 A 5.226 5.226 0 0 1 183.854 42.238 A 4.99 4.99 0 0 1 183.12 41.46 Q 182.306 40.391 181.88 38.717 A 12.243 12.243 0 0 1 181.74 38.1 A 18.58 18.58 0 0 1 181.492 36.443 Q 181.406 35.64 181.363 34.719 A 42.005 42.005 0 0 1 181.32 32.76 L 181.32 16.98 L 177.06 16.98 L 177.06 13.08 L 181.32 13.08 L 181.32 3.9 L 185.76 3.9 L 185.76 13.08 Z M 288.66 13.08 L 298.2 13.08 L 298.2 16.98 L 288.66 16.98 L 288.66 31.32 Q 288.66 35.91 289.263 37.67 A 3.503 3.503 0 0 0 289.44 38.1 Q 290.16 39.72 292.98 39.72 L 298.32 39.36 L 298.62 43.08 A 164.972 164.972 0 0 1 297.162 43.288 Q 296.584 43.368 296.056 43.436 A 92.896 92.896 0 0 1 295.05 43.56 A 32.896 32.896 0 0 1 294.016 43.666 Q 293.531 43.708 293.112 43.726 A 14.162 14.162 0 0 1 292.5 43.74 A 17.873 17.873 0 0 1 290.85 43.668 Q 290.046 43.594 289.357 43.441 A 8.788 8.788 0 0 1 288.57 43.23 A 5.226 5.226 0 0 1 286.754 42.238 A 4.99 4.99 0 0 1 286.02 41.46 Q 285.206 40.391 284.78 38.717 A 12.243 12.243 0 0 1 284.64 38.1 A 18.58 18.58 0 0 1 284.392 36.443 Q 284.306 35.64 284.263 34.719 A 42.005 42.005 0 0 1 284.22 32.76 L 284.22 16.98 L 279.96 16.98 L 279.96 13.08 L 284.22 13.08 L 284.22 3.9 L 288.66 3.9 L 288.66 13.08 Z M 104.1 13.26 L 104.1 0 L 108.54 0 L 108.54 43.08 L 104.1 43.08 L 104.1 41.04 A 21.323 21.323 0 0 1 99.813 42.929 A 16.329 16.329 0 0 1 94.98 43.68 Q 92.474 43.68 90.677 43.036 A 7.65 7.65 0 0 1 89.46 42.48 Q 87.36 41.28 86.19 39.24 Q 85.02 37.2 84.6 34.53 A 35.2 35.2 0 0 1 84.196 30.058 A 40.076 40.076 0 0 1 84.18 28.92 Q 84.18 20.16 87.09 16.32 Q 89.595 13.014 94.923 12.554 A 20.9 20.9 0 0 1 96.72 12.48 Q 100.38 12.48 104.1 13.26 Z M 64.14 13.2 L 65.58 13.38 L 65.4 17.04 A 140.737 140.737 0 0 0 63.18 16.804 Q 60.929 16.584 59.388 16.523 A 27.382 27.382 0 0 0 58.32 16.5 A 19.563 19.563 0 0 0 56.544 16.576 Q 55.159 16.703 54.09 17.04 A 5.642 5.642 0 0 0 52.435 17.864 A 4.998 4.998 0 0 0 51.39 18.9 A 6.617 6.617 0 0 0 50.598 20.302 Q 50.317 20.969 50.12 21.766 A 12.734 12.734 0 0 0 49.98 22.41 A 20.486 20.486 0 0 0 49.724 24.209 Q 49.56 25.838 49.56 27.9 Q 49.56 30.394 49.766 32.289 A 23.235 23.235 0 0 0 49.92 33.45 A 11.344 11.344 0 0 0 50.279 35.015 Q 50.651 36.218 51.27 37.08 A 5.402 5.402 0 0 0 53.785 38.992 A 6.616 6.616 0 0 0 53.97 39.06 A 9.258 9.258 0 0 0 55.392 39.426 Q 56.692 39.66 58.38 39.66 L 65.46 39.12 L 65.64 42.84 Q 62.82 43.26 60.75 43.47 A 51.406 51.406 0 0 1 59.351 43.594 Q 58.184 43.68 57.3 43.68 A 23.219 23.219 0 0 1 54.846 43.558 Q 52.931 43.354 51.45 42.81 A 8.523 8.523 0 0 1 48.699 41.193 A 8.02 8.02 0 0 1 47.64 40.05 Q 46.335 38.337 45.695 35.713 A 17.651 17.651 0 0 1 45.57 35.16 Q 45.08 32.828 44.971 29.735 A 52.117 52.117 0 0 1 44.94 27.9 A 43.997 43.997 0 0 1 45.037 24.891 Q 45.138 23.42 45.344 22.151 A 21.346 21.346 0 0 1 45.63 20.7 A 14.657 14.657 0 0 1 46.324 18.494 Q 46.825 17.271 47.522 16.315 A 8.62 8.62 0 0 1 47.82 15.93 A 8.365 8.365 0 0 1 51.543 13.342 A 9.974 9.974 0 0 1 51.69 13.29 A 13.886 13.886 0 0 1 53.953 12.736 Q 55.111 12.548 56.438 12.498 A 26.087 26.087 0 0 1 57.42 12.48 Q 59.4 12.48 64.14 13.2 Z M 250.35 20.94 A 21.47 21.47 0 0 0 250.085 22.259 Q 249.66 24.769 249.66 28.02 Q 249.66 30.478 249.882 32.513 A 25.661 25.661 0 0 0 250.29 35.1 A 14.28 14.28 0 0 0 251.016 37.497 A 10.26 10.26 0 0 0 252.42 39.96 A 8.33 8.33 0 0 0 253.68 41.257 A 9.107 9.107 0 0 0 256.38 42.78 A 12.213 12.213 0 0 0 257.599 43.152 Q 258.67 43.422 259.924 43.553 A 24.69 24.69 0 0 0 262.5 43.68 A 26.903 26.903 0 0 0 263.944 43.643 Q 265.275 43.571 266.423 43.363 A 13.299 13.299 0 0 0 268.62 42.78 A 10.354 10.354 0 0 0 269.073 42.602 A 8.572 8.572 0 0 0 272.58 39.96 A 9.067 9.067 0 0 0 272.593 39.943 Q 274.083 38.027 274.71 35.1 A 23.286 23.286 0 0 0 274.952 33.781 Q 275.155 32.47 275.251 30.956 A 46.051 46.051 0 0 0 275.34 28.02 A 45.89 45.89 0 0 0 275.317 26.563 Q 275.268 25.004 275.109 23.634 A 23.787 23.787 0 0 0 274.65 20.94 Q 273.96 18 272.43 16.11 Q 270.9 14.22 268.47 13.35 A 12.278 12.278 0 0 0 267.519 13.054 Q 266.433 12.761 265.166 12.618 A 23.21 23.21 0 0 0 262.56 12.48 A 26.211 26.211 0 0 0 261.628 12.496 Q 260.257 12.545 259.059 12.74 A 14.114 14.114 0 0 0 256.62 13.35 A 10.601 10.601 0 0 0 256.316 13.463 A 8.9 8.9 0 0 0 252.6 16.11 Q 251.04 18 250.35 20.94 Z M 0 43.08 L 4.62 43.08 L 4.62 1.56 L 0 1.56 L 0 43.08 Z M 72.36 43.08 L 76.86 43.08 L 76.86 13.08 L 72.36 13.08 L 72.36 43.08 Z M 102.9 37.98 L 104.1 37.44 L 104.1 17.1 A 43.655 43.655 0 0 0 100.061 16.528 A 33.861 33.861 0 0 0 96.96 16.38 A 11.229 11.229 0 0 0 94.615 16.607 Q 91.894 17.189 90.6 19.26 A 9.404 9.404 0 0 0 89.613 21.505 Q 88.918 23.782 88.817 27.147 A 39.217 39.217 0 0 0 88.8 28.32 Q 88.8 30.24 88.98 32.25 A 13.206 13.206 0 0 0 89.389 34.566 A 11.051 11.051 0 0 0 89.85 35.91 Q 90.54 37.56 91.95 38.61 Q 93.136 39.493 95.023 39.634 A 9.949 9.949 0 0 0 95.76 39.66 A 10.923 10.923 0 0 0 96.745 39.613 A 14.218 14.218 0 0 0 97.59 39.51 Q 98.58 39.36 99.57 39.09 A 31.176 31.176 0 0 0 100.875 38.705 A 26.454 26.454 0 0 0 101.43 38.52 A 45.496 45.496 0 0 0 102.045 38.303 Q 102.285 38.217 102.499 38.136 A 22.685 22.685 0 0 0 102.9 37.98 Z M 254.28 27.9 Q 254.28 31.2 254.61 33.45 Q 254.94 35.7 255.87 37.11 Q 256.8 38.52 258.42 39.15 Q 260.04 39.78 262.56 39.78 A 17.431 17.431 0 0 0 264.183 39.709 Q 265.627 39.574 266.67 39.18 Q 268.26 38.58 269.16 37.17 A 7.153 7.153 0 0 0 269.838 35.775 Q 270.09 35.088 270.256 34.275 A 13.824 13.824 0 0 0 270.39 33.51 Q 270.72 31.26 270.72 27.96 A 46.275 46.275 0 0 0 270.666 25.66 Q 270.612 24.577 270.504 23.645 A 21.002 21.002 0 0 0 270.33 22.44 A 11.81 11.81 0 0 0 269.957 20.897 Q 269.58 19.714 268.98 18.87 Q 268.02 17.52 266.46 16.95 A 8.426 8.426 0 0 0 265.064 16.581 Q 263.949 16.38 262.56 16.38 Q 260.22 16.38 258.63 16.95 Q 257.04 17.52 256.08 18.87 A 7.037 7.037 0 0 0 255.321 20.266 Q 255.04 20.946 254.842 21.756 A 13.401 13.401 0 0 0 254.7 22.41 A 20.486 20.486 0 0 0 254.444 24.209 Q 254.28 25.838 254.28 27.9 Z M 230.16 24 L 219.42 24 L 219.42 39 L 230.46 39 Q 233.054 39 234.847 38.329 A 6.537 6.537 0 0 0 236.7 37.29 Q 238.244 36.033 238.653 33.365 A 13.939 13.939 0 0 0 238.8 31.26 A 9.91 9.91 0 0 0 238.657 29.53 Q 238.447 28.348 237.93 27.42 A 5.695 5.695 0 0 0 236.971 26.138 A 4.674 4.674 0 0 0 235.62 25.2 Q 232.92 24 230.16 24 Z M 229.68 5.64 L 219.42 5.64 L 219.42 19.98 L 230.1 19.98 A 12.742 12.742 0 0 0 232.147 19.827 Q 234.452 19.451 235.71 18.15 A 5.692 5.692 0 0 0 236.98 16.019 Q 237.289 15.129 237.407 14.035 A 13.389 13.389 0 0 0 237.48 12.6 A 11.531 11.531 0 0 0 237.33 10.674 Q 237.157 9.654 236.784 8.858 A 4.698 4.698 0 0 0 235.59 7.26 A 5.747 5.747 0 0 0 233.788 6.242 Q 232.182 5.659 229.832 5.641 A 19.647 19.647 0 0 0 229.68 5.64 Z M 120.42 26.34 L 136.02 26.34 Q 136.02 20.82 134.25 18.54 A 5.492 5.492 0 0 0 131.566 16.696 Q 130.622 16.383 129.461 16.295 A 12.425 12.425 0 0 0 128.52 16.26 Q 125.45 16.26 123.552 17.66 A 6.121 6.121 0 0 0 122.49 18.66 A 7.323 7.323 0 0 0 121.267 20.838 Q 120.458 23.019 120.42 26.34 Z M 72.36 6.3 L 76.86 6.3 L 76.86 1.08 L 72.36 1.08 L 72.36 6.3 Z" vector-effect="non-scaling-stroke"/>
	</g>
</svg>